<svg id="visual" viewBox="0 0 540 960" width="540" height="960" xmlns="http://www.w3.org/2000/svg" xmlns:xlink="http://www.w3.org/1999/xlink" version="1.1"><rect x="0" y="0" width="540" height="960" fill="#9acd32"></rect><path d="M0 400L77 400L77 549L154 549L154 491L231 491L231 527L309 527L309 382L386 382L386 448L463 448L463 535L540 535L540 446L540 0L540 0L463 0L463 0L386 0L386 0L309 0L309 0L231 0L231 0L154 0L154 0L77 0L77 0L0 0Z" fill="#00ffff"></path><path d="M0 229L77 229L77 406L154 406L154 252L231 252L231 294L309 294L309 331L386 331L386 355L463 355L463 330L540 330L540 406L540 0L540 0L463 0L463 0L386 0L386 0L309 0L309 0L231 0L231 0L154 0L154 0L77 0L77 0L0 0Z" fill="#18d5d5"></path><path d="M0 202L77 202L77 119L154 119L154 116L231 116L231 167L309 167L309 160L386 160L386 208L463 208L463 180L540 180L540 246L540 0L540 0L463 0L463 0L386 0L386 0L309 0L309 0L231 0L231 0L154 0L154 0L77 0L77 0L0 0Z" fill="#1facac"></path></svg>