<svg id="visual" viewBox="0 0 900 600" width="900" height="600" xmlns="http://www.w3.org/2000/svg" xmlns:xlink="http://www.w3.org/1999/xlink" version="1.1"><rect x="0" y="0" width="900" height="600" fill="#9acd32"></rect><path d="M0 395L43 395L43 464L86 464L86 444L129 444L129 518L171 518L171 409L214 409L214 414L257 414L257 500L300 500L300 426L343 426L343 461L386 461L386 381L429 381L429 466L471 466L471 452L514 452L514 375L557 375L557 368L600 368L600 445L643 445L643 478L686 478L686 407L729 407L729 525L771 525L771 528L814 528L814 500L857 500L857 517L900 517L900 439L900 601L900 601L857 601L857 601L814 601L814 601L771 601L771 601L729 601L729 601L686 601L686 601L643 601L643 601L600 601L600 601L557 601L557 601L514 601L514 601L471 601L471 601L429 601L429 601L386 601L386 601L343 601L343 601L300 601L300 601L257 601L257 601L214 601L214 601L171 601L171 601L129 601L129 601L86 601L86 601L43 601L43 601L0 601Z" fill="#00ffff" stroke-linecap="square" stroke-linejoin="miter"></path></svg>