<svg id="visual" viewBox="0 0 900 600" width="900" height="600" xmlns="http://www.w3.org/2000/svg" xmlns:xlink="http://www.w3.org/1999/xlink" version="1.1"><rect x="0" y="0" width="900" height="600" fill="#9acd32"></rect><path d="M0 118L82 118L82 135L164 135L164 103L245 103L245 156L327 156L327 120L409 120L409 92L491 92L491 181L573 181L573 97L655 97L655 147L736 147L736 76L818 76L818 205L900 205L900 208L900 0L900 0L818 0L818 0L736 0L736 0L655 0L655 0L573 0L573 0L491 0L491 0L409 0L409 0L327 0L327 0L245 0L245 0L164 0L164 0L82 0L82 0L0 0Z" fill="#00ffff" stroke-linecap="square" stroke-linejoin="miter"></path></svg>